<svg xmlns="http://www.w3.org/2000/svg" xmlns:xlink="http://www.w3.org/1999/xlink" width="800" zoomAndPan="magnify" viewBox="0 0 600 809.999993" height="1080" preserveAspectRatio="xMidYMid meet" version="1.0"><defs><clipPath id="id1"><path d="M 0 8 L 216 8 L 216 796 L 0 796 Z M 0 8 " clip-rule="nonzero"/></clipPath><clipPath id="id2"><path d="M -441.9375 -309.203125 L 574.433594 342.753906 L 76.355469 1119.234375 L -940.015625 467.28125 Z M -441.9375 -309.203125 " clip-rule="nonzero"/></clipPath><clipPath id="id3"><path d="M -441.9375 -309.203125 L 574.433594 342.753906 L 76.355469 1119.234375 L -940.015625 467.28125 Z M -441.9375 -309.203125 " clip-rule="nonzero"/></clipPath><clipPath id="id4"><path d="M 0 131 L 37 131 L 37 688 L 0 688 Z M 0 131 " clip-rule="nonzero"/></clipPath><clipPath id="id5"><path d="M -441.9375 -309.203125 L 574.433594 342.753906 L 76.355469 1119.234375 L -940.015625 467.28125 Z M -441.9375 -309.203125 " clip-rule="nonzero"/></clipPath><clipPath id="id6"><path d="M -441.9375 -309.203125 L 574.433594 342.753906 L 76.355469 1119.234375 L -940.015625 467.28125 Z M -441.9375 -309.203125 " clip-rule="nonzero"/></clipPath><clipPath id="id7"><path d="M 0 0 L 364 0 L 364 810 L 0 810 Z M 0 0 " clip-rule="nonzero"/></clipPath><clipPath id="id8"><path d="M -441.9375 -309.203125 L 574.433594 342.753906 L 76.355469 1119.234375 L -940.015625 467.28125 Z M -441.9375 -309.203125 " clip-rule="nonzero"/></clipPath><clipPath id="id9"><path d="M -441.9375 -309.203125 L 574.433594 342.753906 L 76.355469 1119.234375 L -940.015625 467.28125 Z M -441.9375 -309.203125 " clip-rule="nonzero"/></clipPath></defs><g clip-path="url(#id1)"><g clip-path="url(#id2)"><g clip-path="url(#id3)"><path fill="#f87171" d="M -217.785156 761.0625 C -220.761719 759.152344 -223.660156 757.125 -226.492188 754.945312 C -251.5 735.738281 -267.183594 708.28125 -282.324219 681.730469 C -292.195312 664.417969 -302.355469 646.46875 -315.003906 631.433594 C -345.5625 594.773438 -390.777344 573.277344 -434.488281 552.496094 C -448.308594 545.925781 -462.625 539.125 -476.3125 531.914062 C -498.996094 519.996094 -527.386719 502.960938 -545.785156 476.898438 C -567.6875 446.042969 -574.882812 403.910156 -566.164062 358.40625 C -558.445312 318.082031 -539.636719 280.335938 -523.050781 247.015625 C -492.378906 185.445312 -454.277344 108.890625 -390.417969 60.0625 C -330.785156 14.464844 -253.105469 -2.554688 -182.578125 14.53125 L -184.195312 21.421875 L -182.578125 14.53125 C -125.453125 28.285156 -73.867188 66.699219 -37.171875 122.5625 C -2.605469 175.191406 15.480469 239.15625 12.40625 298.085938 C 11.957031 306.207031 11.191406 314.34375 10.425781 322.257812 C 8.507812 342.710938 6.601562 361.964844 10.351562 380.875 C 16.1875 410.28125 36.148438 438.269531 66.550781 459.675781 C 81.128906 469.953125 97.515625 478.417969 113.359375 486.589844 C 129.222656 494.398438 144.550781 503.136719 159.351562 512.8125 C 196.34375 538.085938 217.523438 573.128906 215.855469 606.464844 C 215.085938 621.632812 209.902344 637.355469 199.527344 655.886719 C 168.65625 711 113.359375 755.289062 48.035156 777.542969 C -10.457031 797.398438 -77.71875 800.535156 -146.671875 786.929688 C -167.9375 782.671875 -194.570312 775.953125 -217.785156 761.0625 Z M -355.878906 578.070312 C -346.171875 584.089844 -336.988281 590.816406 -328.320312 598.253906 C -319.65625 605.691406 -311.609375 613.75 -304.1875 622.433594 C -290.769531 638.492188 -280.261719 656.941406 -270.074219 674.765625 C -254.957031 701.273438 -240.671875 726.324219 -217.902344 743.785156 C -195.136719 761.246094 -166.445312 768.640625 -143.949219 773.125 C -77.488281 786.339844 -12.683594 783.277344 43.453125 764.210938 C 105.601562 743.113281 157.953125 701.136719 187.132812 649.058594 C 196.367188 632.566406 200.988281 618.722656 201.671875 605.828125 C 203.074219 577.449219 184.292969 547.050781 151.320312 524.585938 C 137.003906 515.226562 122.164062 506.78125 106.804688 499.253906 C 90.550781 490.84375 73.726562 482.152344 58.347656 471.332031 C 24.957031 447.816406 2.964844 416.703125 -3.578125 383.730469 C -7.734375 362.746094 -5.675781 341.511719 -3.707031 320.980469 C -2.960938 313.222656 -2.160156 305.164062 -1.765625 297.429688 C 3.828125 190.75 -64.996094 57.539062 -185.90625 28.28125 C -252.3125 12.1875 -325.589844 28.328125 -381.824219 71.289062 C -443.066406 118.128906 -480.402344 193.101562 -510.378906 253.324219 C -526.578125 285.824219 -544.90625 322.648438 -552.210938 360.96875 C -560.074219 402.039062 -553.539062 441.359375 -534.179688 468.628906 C -517.507812 492.234375 -490.945312 508.097656 -469.660156 519.316406 C -456.230469 526.363281 -442.085938 533.082031 -428.335938 539.628906 C -403.824219 551.402344 -378.832031 563.34375 -355.878906 578.070312 Z M -355.878906 578.070312 " fill-opacity="1" fill-rule="nonzero"/></g></g></g><g clip-path="url(#id4)"><g clip-path="url(#id5)"><g clip-path="url(#id6)"><path fill="#f87171" d="M -177.570312 646.640625 C -191.976562 637.488281 -205.289062 626.949219 -217.503906 615.027344 C -229.714844 603.105469 -240.574219 590.054688 -250.070312 575.871094 C -254.632812 568.96875 -258.910156 561.796875 -263.007812 554.828125 C -269.476562 543.246094 -276.738281 532.179688 -284.789062 521.636719 C -295.457031 508.320312 -308.878906 496.769531 -321.867188 485.582031 L -328.71875 479.675781 C -356.5 455.492188 -390.855469 422.390625 -409.90625 380.585938 C -429.914062 336.597656 -429.007812 287.648438 -407.527344 252.847656 C -396.480469 234.972656 -380.390625 220.804688 -364.636719 208.160156 C -332.09375 182.046875 -297.519531 158.980469 -260.910156 138.960938 C -236.65625 125.691406 -219.175781 134.019531 -202.261719 142.09375 C -196.953125 144.601562 -191.527344 147.1875 -185.527344 149.355469 C -177.972656 152.089844 -170.699219 155.433594 -163.703125 159.382812 C -156.710938 163.328125 -150.089844 167.828125 -143.84375 172.882812 C -137.601562 177.933594 -131.816406 183.46875 -126.496094 189.484375 C -121.171875 195.5 -116.386719 201.917969 -112.132812 208.734375 C -91.800781 241.386719 -82.859375 283.542969 -87.003906 327.503906 C -87.511719 333.058594 -88.234375 338.675781 -88.929688 344.085938 C -90.617188 357.234375 -92.222656 369.652344 -91.28125 382.105469 C -89.246094 408.625 -75.820312 435.449219 -49.003906 466.460938 C -42.570312 473.894531 -35.671875 481.34375 -29.007812 488.503906 C -12.992188 505.753906 3.542969 523.589844 16.25 544.207031 C 37.625 578.902344 42.824219 617.117188 30.195312 646.445312 C 28.917969 649.570312 27.410156 652.578125 25.667969 655.46875 C 23.925781 658.359375 21.972656 661.101562 19.804688 663.691406 C 17.640625 666.28125 15.289062 668.691406 12.753906 670.917969 C 10.21875 673.144531 7.527344 675.164062 4.679688 676.976562 C -9.964844 685.875 -27.402344 687.214844 -40.878906 687.226562 C -88.933594 687.667969 -136.917969 672.714844 -177.570312 646.640625 Z M -254.179688 151.347656 C -290.054688 170.960938 -323.933594 193.570312 -355.820312 219.167969 C -372.875 232.882812 -386.167969 245.089844 -395.535156 260.257812 C -414.566406 291.109375 -415.15625 334.941406 -397.046875 374.683594 C -379.253906 413.78125 -347.855469 444.285156 -319.46875 468.964844 C -317.230469 470.933594 -314.949219 472.875 -312.675781 474.835938 C -299.207031 486.445312 -285.277344 498.433594 -273.792969 512.75 C -265.28125 523.835938 -257.605469 535.472656 -250.765625 547.664062 C -246.738281 554.476562 -242.582031 561.484375 -238.214844 568.125 C -195.664062 632.457031 -118.273438 673.636719 -40.902344 673.117188 C -29.199219 673.035156 -14.28125 672.042969 -2.609375 664.933594 C 1.828125 662.011719 5.730469 658.496094 9.09375 654.386719 C 12.457031 650.273438 15.128906 645.753906 17.113281 640.824219 C 27.902344 615.753906 23.0625 582.390625 4.089844 551.59375 C -7.875 532.179688 -23.9375 514.871094 -39.464844 498.128906 C -46.203125 490.867188 -53.179688 483.367188 -59.800781 475.699219 C -88.753906 442.253906 -103.214844 412.890625 -105.484375 383.164062 C -106.539062 369.265625 -104.796875 355.589844 -103.058594 342.277344 C -102.433594 336.933594 -101.730469 331.472656 -101.144531 326.191406 C -97.332031 285.324219 -105.507812 246.292969 -124.179688 216.164062 C -128.003906 210.011719 -132.3125 204.21875 -137.105469 198.789062 C -141.898438 193.359375 -147.105469 188.359375 -152.730469 183.800781 C -158.355469 179.238281 -164.320312 175.171875 -170.625 171.605469 C -176.929688 168.039062 -183.484375 165.019531 -190.292969 162.546875 C -196.441406 160.257812 -202.453125 157.652344 -208.328125 154.734375 C -224.558594 147.121094 -236.207031 141.445312 -254.117188 151.246094 Z M -254.179688 151.347656 " fill-opacity="1" fill-rule="nonzero"/></g></g></g><g clip-path="url(#id7)"><g clip-path="url(#id8)"><g clip-path="url(#id9)"><path fill="#f87171" d="M -797.210938 558.773438 C -799.3125 557.421875 -801.414062 556.074219 -803.457031 554.625 C -825.726562 539.273438 -838.136719 522.992188 -841.382812 504.832031 C -844.085938 489.789062 -840.363281 473.207031 -830.058594 454.128906 C -816.234375 428.566406 -796.480469 406.890625 -777.371094 385.921875 C -757.949219 364.589844 -737.847656 342.550781 -724.769531 317.011719 C -709.292969 286.511719 -704.25 252.851562 -698.921875 217.214844 C -696.421875 200.523438 -693.90625 183.199219 -690.058594 166.503906 C -659.832031 31.808594 -544.722656 -81.894531 -403.566406 -116.410156 C -337.269531 -132.71875 -265.1875 -131.976562 -194.773438 -114.488281 C -177.679688 -110.222656 -160.859375 -105.046875 -144.324219 -98.960938 C -127.789062 -92.875 -111.628906 -85.914062 -95.847656 -78.074219 C -80.066406 -70.238281 -64.753906 -61.574219 -49.910156 -52.078125 C -35.066406 -42.585938 -20.777344 -32.316406 -7.046875 -21.273438 C 96.875 62.671875 170.15625 192.6875 194.1875 335.914062 C 198.46875 341.683594 200.335938 354.621094 202.054688 385.558594 C 202.355469 390.9375 202.609375 395.609375 202.808594 397.476562 C 203.203125 400.527344 203.558594 403.558594 203.875 406.816406 C 205.109375 418.558594 206.492188 431.859375 212.90625 439.839844 C 217.183594 445.132812 224.671875 448.785156 231.90625 452.308594 C 235.152344 453.882812 238.507812 455.503906 241.601562 457.320312 C 254.175781 464.605469 266.589844 472.539062 278.605469 480.21875 C 284.558594 484.035156 290.390625 487.777344 296.285156 491.558594 C 327.617188 511.207031 368.730469 542.148438 363.117188 584.6875 C 360.773438 602.796875 350.199219 617.359375 339.96875 631.472656 C 333.5 639.753906 327.933594 648.605469 323.273438 658.027344 C 317.792969 670.28125 315.921875 683.761719 313.914062 698.023438 C 312.988281 704.574219 312.0625 711.347656 310.730469 718.003906 C 300.824219 767.679688 269.980469 810.257812 242.742188 847.835938 C 221.132812 877.679688 194.210938 914.761719 155.519531 932.945312 C 113.671875 952.523438 60.652344 949.613281 -6.574219 924.058594 C -27.542969 916.023438 -48.074219 906.996094 -68.171875 896.976562 C -88.269531 886.957031 -107.835938 875.992188 -126.875 864.082031 C -145.914062 852.171875 -164.332031 839.371094 -182.128906 825.679688 C -199.929688 811.988281 -217.027344 797.472656 -233.425781 782.128906 C -242.804688 773.308594 -252.09375 764.128906 -261.007812 755.273438 C -281.035156 735.421875 -301.746094 714.882812 -324.5625 697.976562 C -401.992188 640.574219 -504.6875 624.125 -594.84375 613.191406 L -601.855469 612.332031 C -669.699219 604.113281 -739.695312 595.664062 -797.210938 558.773438 Z M -56.765625 -39.71875 C -160.269531 -106.113281 -287.828125 -130.25 -400.289062 -102.707031 C -536.378906 -69.539062 -647.261719 39.980469 -676.359375 169.550781 C -679.996094 185.789062 -682.546875 202.8125 -685 219.253906 C -690.289062 254.4375 -695.730469 290.816406 -712.242188 323.367188 C -726.097656 350.648438 -746.84375 373.425781 -766.894531 395.472656 C -785.503906 415.753906 -804.609375 436.808594 -817.644531 460.972656 C -826.363281 477.09375 -829.578125 490.664062 -827.449219 502.449219 C -824.886719 516.699219 -814.347656 530.042969 -795.410156 543.089844 C -739.652344 581.457031 -668.75 590.101562 -600.160156 598.292969 L -593.132812 599.128906 C -501.167969 610.300781 -396.34375 627.140625 -316.042969 686.660156 C -292.410156 704.171875 -271.328125 725.09375 -250.90625 745.25 C -242.015625 754.089844 -232.828125 763.207031 -223.566406 771.867188 C -207.488281 786.890625 -190.722656 801.105469 -173.269531 814.507812 C -155.820312 827.910156 -137.761719 840.441406 -119.097656 852.097656 C -100.433594 863.757812 -81.25 874.484375 -61.546875 884.289062 C -41.84375 894.089844 -21.714844 902.917969 -1.160156 910.773438 C 62.285156 934.886719 111.714844 937.933594 149.894531 920.066406 C 185.277344 903.539062 209.945312 869.496094 231.667969 839.472656 C 258 803.132812 287.921875 761.8125 297.230469 715.171875 C 298.457031 708.894531 299.402344 702.359375 300.285156 696.003906 C 302.332031 681.375 304.449219 666.289062 310.703125 652.257812 C 315.75 641.945312 321.796875 632.253906 328.84375 623.191406 C 338.421875 610.003906 347.460938 597.53125 349.375 582.933594 C 353.90625 548.496094 317.117188 521.199219 289.058594 503.648438 C 283.109375 499.832031 277.15625 496.011719 271.203125 492.195312 C 259.300781 484.558594 247.058594 476.707031 234.726562 469.609375 C 232.070312 468.074219 229.089844 466.609375 225.921875 465.082031 C 217.691406 461.0625 208.320312 456.59375 202.109375 448.769531 C 193.074219 437.539062 191.460938 422.019531 190.03125 408.355469 C 189.640625 405.304688 189.34375 402.3125 189.023438 399.5 C 188.699219 396.6875 188.402344 392.519531 188.078125 386.34375 C 187.511719 376.316406 186.070312 349.925781 183.113281 344.582031 C 182.476562 344.03125 181.960938 343.390625 181.558594 342.648438 C 181.160156 341.910156 180.90625 341.125 180.792969 340.292969 C 157.648438 199.65625 86.019531 71.871094 -15.738281 -10.347656 C -28.882812 -20.878906 -42.558594 -30.667969 -56.765625 -39.71875 Z M 183.652344 345.09375 Z M 183.652344 345.09375 " fill-opacity="1" fill-rule="nonzero"/></g></g></g></svg>